<?xml version="1.0" encoding="UTF-8"?>
<svg width="196.52mm" height="196.52mm" version="1.1" viewBox="0 0 196.52 196.52" xmlns="http://www.w3.org/2000/svg">
 <defs>
  <clipPath id="clipPath33">
   <path d="m15.23 63.478a16.571 16.571 0 1 0 33.092 1.8025 16.571 16.571 0 1 0-33.092-1.8025m13.54 86.612a16.571 16.571 0 1 0 33.092 1.8025 16.571 16.571 0 1 0-33.092-1.8025m86.577 13.893a16.571 16.571 0 1 0 33.092 1.8025 16.571 16.571 0 1 0-33.092-1.8025m39.967-78.025a16.571 16.571 0 1 0 33.092 1.8025 16.571 16.571 0 1 0-33.092-1.8025m-61.875-62.115a16.571 16.571 0 1 0 33.092 1.8025 16.571 16.571 0 1 0-33.092-1.8025m-43.662 37.799a18.228 18.228 0 0 1-1.694 10.869l26.821 4.3077 5.2715-10.294zm45.968 7.382-5.272 10.295 63.371 10.178a18.228 18.228 0 0 1 1.7606-10.859zm22.505-28.059a18.228 18.228 0 0 1-10.851 1.8123l4.1853 26.8 11.42 1.8324zm-4.2333 44.193 9.8955 63.363a18.228 18.228 0 0 1 10.88-1.6278l-9.355-59.904zm-69.245-33.529a18.228 18.228 0 0 1 4.9723 9.8123l47.248-23.945a18.228 18.228 0 0 1-4.9718-9.8113zm81.362-18.468a18.228 18.228 0 0 1-7.7975 7.7608l37.376 37.521a18.228 18.228 0 0 1 7.7969-7.7608zm8.7819 113.76a18.228 18.228 0 0 1 9.788 5.0224l24.134-47.117a18.228 18.228 0 0 1-9.7875-5.0229zm-71.589 1.3927a18.228 18.228 0 0 1-1.7322 10.863l52.289 8.3907a18.228 18.228 0 0 1 1.7322-10.863zm-23.435-67.635a18.228 18.228 0 0 1-10.865 1.7198l8.1762 52.298a18.228 18.228 0 0 1 10.865-1.7198zm29.641 10.978 8.1618 8.1933 29.269-57.139a18.228 18.228 0 0 1-9.787-5.0219zm-7.1897 14.036-14.002 27.335a18.228 18.228 0 0 1 9.786 5.0214l12.378-24.164zm67.323-3.6137 1.7865 11.427 27.415-13.894a18.228 18.228 0 0 1-4.9719-9.8124zm-14.066 7.1282-57.289 29.034a18.228 18.228 0 0 1 4.9728 9.8133l54.103-27.419zm-67.675-36.408a18.228 18.228 0 0 1-7.7959 7.7597l42.798 42.965 10.318-5.2291zm56.452 56.67-10.318 5.2291 21.686 21.771a18.228 18.228 0 0 1 7.7975-7.7608z"/>
  </clipPath>
  <clipPath id="clipPath34">
   <path d="m15.23 63.478a16.571 16.571 0 1 0 33.092 1.8025 16.571 16.571 0 1 0-33.092-1.8025m13.54 86.612a16.571 16.571 0 1 0 33.092 1.8025 16.571 16.571 0 1 0-33.092-1.8025m86.577 13.893a16.571 16.571 0 1 0 33.092 1.8025 16.571 16.571 0 1 0-33.092-1.8025m39.967-78.025a16.571 16.571 0 1 0 33.092 1.8025 16.571 16.571 0 1 0-33.092-1.8025m-61.875-62.115a16.571 16.571 0 1 0 33.092 1.8025 16.571 16.571 0 1 0-33.092-1.8025m-43.662 37.799a18.228 18.228 0 0 1-1.694 10.869l26.821 4.3077 5.2715-10.294zm45.968 7.382-5.272 10.295 63.371 10.178a18.228 18.228 0 0 1 1.7606-10.859zm22.505-28.059a18.228 18.228 0 0 1-10.851 1.8123l4.1853 26.8 11.42 1.8324zm-4.2333 44.193 9.8955 63.363a18.228 18.228 0 0 1 10.88-1.6278l-9.355-59.904zm-69.245-33.529a18.228 18.228 0 0 1 4.9723 9.8123l47.248-23.945a18.228 18.228 0 0 1-4.9718-9.8113zm81.362-18.468a18.228 18.228 0 0 1-7.7975 7.7608l37.376 37.521a18.228 18.228 0 0 1 7.7969-7.7608zm8.7819 113.76a18.228 18.228 0 0 1 9.788 5.0224l24.134-47.117a18.228 18.228 0 0 1-9.7875-5.0229zm-71.589 1.3927a18.228 18.228 0 0 1-1.7322 10.863l52.289 8.3907a18.228 18.228 0 0 1 1.7322-10.863zm-23.435-67.635a18.228 18.228 0 0 1-10.865 1.7198l8.1762 52.298a18.228 18.228 0 0 1 10.865-1.7198zm29.641 10.978 8.1618 8.1933 29.269-57.139a18.228 18.228 0 0 1-9.787-5.0219zm-7.1897 14.036-14.002 27.335a18.228 18.228 0 0 1 9.786 5.0214l12.378-24.164zm67.323-3.6137 1.7865 11.427 27.415-13.894a18.228 18.228 0 0 1-4.9719-9.8124zm-14.066 7.1282-57.289 29.034a18.228 18.228 0 0 1 4.9728 9.8133l54.103-27.419zm-67.675-36.408a18.228 18.228 0 0 1-7.7959 7.7597l42.798 42.965 10.318-5.2291zm56.452 56.67-10.318 5.2291 21.686 21.771a18.228 18.228 0 0 1 7.7975-7.7608z"/>
  </clipPath>
 </defs>
 <circle cx="98.26" cy="98.26" r="98.26" fill="#fff" stroke-linecap="round" stroke-linejoin="round" stroke-width="2.6458" style="paint-order:stroke markers fill"/>
 <g stroke-width="4.0942">
  <path d="m139.14 125.51a73.695 73.695 0 1 1-122.64-81.757 98.26 98.26 0 1 1 163.51 109.01" clip-path="url(#clipPath34)" fill="#cd2e3a"/>
  <path d="m98.26 98.26a49.13 49.13 0 1 1 81.757 54.505 98.26 98.26 0 1 1-163.51-109.01 49.13 49.13 0 1 0 81.757 54.505" clip-path="url(#clipPath33)" fill="#0047a0"/>
 </g>
</svg>
